PathFileType	4	(X/Y/Z)	/Users/itak/Documents/Research/Walk-IL/dataset/trc/00014_00004.trc
DataRate	CameraRate	NumFrames	NumMarkers	Units	OrigDataRate	OrigDataStartFrame	OrigNumFrames
100.000000	100.000000	4	56	mm	100.000000	136	544
Frame#	Time	LMT1			RPSI			LPSI			L3			STRN			T10			C7			CLAV			RBAK			LBAK			LSHO			LUPA			LAEL			LAOL			LWTS			LWPS			LFRA			LIFD			LHPS			RSHO			RUPA			RAEL			RAOL			RWTS			RWPS			RFRA			RIFD			RHTS			RHPS			RBHD			LFHD			RFHD			LBHD			LHIP			RHIP			RASI			LASI			LKNE			LTHI			LANK			LTIP			LTOE			LMT5			LHEE			RKNE			RANK			RTIP			RTOE			RMT1			RMT5			RHEE			LHTS			RTHI			*53			*54			*55			
		X1	Y1	Z1	X2	Y2	Z2	X3	Y3	Z3	X4	Y4	Z4	X5	Y5	Z5	X6	Y6	Z6	X7	Y7	Z7	X8	Y8	Z8	X9	Y9	Z9	X10	Y10	Z10	X11	Y11	Z11	X12	Y12	Z12	X13	Y13	Z13	X14	Y14	Z14	X15	Y15	Z15	X16	Y16	Z16	X17	Y17	Z17	X18	Y18	Z18	X19	Y19	Z19	X20	Y20	Z20	X21	Y21	Z21	X22	Y22	Z22	X23	Y23	Z23	X24	Y24	Z24	X25	Y25	Z25	X26	Y26	Z26	X27	Y27	Z27	X28	Y28	Z28	X29	Y29	Z29	X30	Y30	Z30	X31	Y31	Z31	X32	Y32	Z32	X33	Y33	Z33	X34	Y34	Z34	X35	Y35	Z35	X36	Y36	Z36	X37	Y37	Z37	X38	Y38	Z38	X39	Y39	Z39	X40	Y40	Z40	X41	Y41	Z41	X42	Y42	Z42	X43	Y43	Z43	X44	Y44	Z44	X45	Y45	Z45	X46	Y46	Z46	X47	Y47	Z47	X48	Y48	Z48	X49	Y49	Z49	X50	Y50	Z50	X51	Y51	Z51	X52	Y52	Z52	X53	Y53	Z53	X54	Y54	Z54	X55	Y55	Z55	X56	Y56	Z56	

137	1.36	1143.769775390625	56.88816070556641	-357.6687927246094	925.8853759765625	1059.669311523438	-190.9156799316406	895.2356567382812	1058.708984375	-351.3749694824219	907.51708984375	1127.023803710938	-275.2825622558594	1145.681274414062	1309.0498046875	-302.7586975097656	892.8744506835938	1270.72412109375	-270.7928161621094	951.2469482421875	1535.376831054688	-286.186767578125	1108.36865234375	1437.160400390625	-300.6529846191406	906.4599609375	1399.465698242188	-200.3276062011719	922.7415771484375	1496.337280273438	-382.5559692382812	1017.921081542969	1499.14111328125	-466.7590942382812	973.0732421875	1377.288452148438	-541.484375	957.6807861328125	1160.893920898438	-569.1814575195312	912.064697265625	1148.854125976562	-474.8335571289062	1063.099975585938	915.2354125976562	-520.3928833007812	983.6273803710938	894.497314453125	-555.3131713867188	973.5855712890625	1045.271606445312	-575.9176635742188	1105.176147460938	733.3167114257812	-504.5922546386719	1023.020935058594	807.7680053710938	-556.972412109375	1050.50634765625	1517.165649414062	-122.0523071289062	1045.3330078125	1445.389038085938	-48.00035858154297	1007.217468261719	1177.633056640625	-20.2329158782959	989.6253662109375	1150.1982421875	-115.1322708129883	1130.38037109375	919.2335815429688	-71.82015991210938	1075.020385742188	903.88330078125	-0.6347821354866028	1021.763610839844	1101.390380859375	-7.878554821014404	1150.641967773438	732.5028076171875	-87.81383514404297	1165.725952148438	809.2623291015625	-62.91383361816406	1116.57568359375	804.3790283203125	-6.818407535552979	978.3926391601562	1693.551635742188	-222.7800140380859	1150.088134765625	1750.284057617188	-332.0186767578125	1143.953857421875	1749.322998046875	-233.6388397216797	978.543701171875	1697.39599609375	-366.9315490722656	971.25927734375	961.8684692382812	-477.3785095214844	1053.921997070312	947.5337524414062	-110.5919876098633	1140.277465820312	978.4599609375	-201.9248046875	1094.286987304688	1003.797058105469	-431.6659545898438	1110.44677734375	524.132568359375	-456.8812561035156	1049.396728515625	655.3671875	-487.120361328125	971.9509887695312	39.12196350097656	-457.7745361328125	1014.211853027344	289.2108154296875	-473.7142028808594	1190.706665039062	42.58382797241211	-393.5651550292969	1096.448364257812	34.14475250244141	-475.7993469238281	903.673095703125	49.80589294433594	-404.5460815429688	1063.756713867188	511.9698791503906	-173.0343017578125	975.0911254882812	32.98210906982422	-213.1403045654297	1043.084106445312	390.7495727539062	-175.3880157470703	1205.70263671875	30.48576354980469	-261.2373352050781	1141.57470703125	36.44079971313477	-289.5370483398438	1124.907592773438	29.11091423034668	-193.2239074707031	917.5172729492188	35.57319641113281	-256.5728759765625	1089.557250976562	823.5211181640625	-535.945556640625	1075.628295898438	781.8588256835938	-123.8742218017578	nan	nan	nan	nan	nan	nan	nan	nan	nan	
138	1.37	1134.822143554688	57.72101211547852	-358.0755310058594	923.30517578125	1059.807250976562	-190.5818481445312	892.2910766601562	1058.87353515625	-350.9784545898438	904.8121948242188	1127.160400390625	-274.8919982910156	1143.218627929688	1308.9169921875	-302.8435363769531	890.4902954101562	1270.982055664062	-270.3478088378906	949.2285766601562	1535.522583007812	-285.7522277832031	1106.138793945312	1437.088012695312	-300.6093139648438	904.4359741210938	1399.640747070312	-199.8460540771484	920.5225219726562	1496.5732421875	-382.0848693847656	1015.5263671875	1499.274169921875	-466.5254516601562	970.196533203125	1377.512084960938	-541.1533813476562	954.235107421875	1161.0654296875	-568.8509521484375	908.7866821289062	1149.09521484375	-474.3193359375	1059.728881835938	915.4651489257812	-519.9747314453125	980.2269897460938	894.6566162109375	-554.7875366210938	970.0845336914062	1045.393920898438	-575.4814453125	1101.932006835938	733.586181640625	-504.0714416503906	1019.666809082031	807.9481811523438	-556.4244995117188	1048.794067382812	1517.096801757812	-121.8555221557617	1043.726684570312	1445.330688476562	-47.77811431884766	1005.713195800781	1177.689819335938	-19.47266006469727	987.805908203125	1150.096923828125	-114.248291015625	1129.250122070312	919.5321655273438	-71.43952941894531	1074.347778320312	904.0780029296875	0.07765551656484604	1020.4267578125	1101.437133789062	-7.081538200378418	1149.950317382812	732.8297119140625	-87.32530212402344	1164.944580078125	809.6698608398438	-62.62340545654297	1116.157470703125	804.7178344726562	-6.219829559326172	976.5897827148438	1693.500854492188	-222.3195953369141	1148.231689453125	1750.279907226562	-331.5863342285156	1142.163330078125	1749.252563476562	-233.2242279052734	976.663818359375	1697.504516601562	-366.4762573242188	968.0601196289062	961.9771118164062	-477.2146606445312	1051.439453125	947.5458374023438	-110.5519027709961	1137.611572265625	978.419189453125	-202.0497894287109	1091.118896484375	1003.794372558594	-431.6656188964844	1108.154907226562	524.2275390625	-457.038330078125	1046.986450195312	655.5516967773438	-486.8294372558594	963.1844482421875	40.70462417602539	-457.5217590332031	1008.927307128906	290.0248107910156	-473.6661987304688	1182.080444335938	43.21906280517578	-394.0416564941406	1087.548828125	35.29455947875977	-475.9572448730469	895.27099609375	51.5615119934082	-404.0533142089844	1062.254760742188	512.0595703125	-172.9551696777344	975.0940551757812	32.910888671875	-213.0835571289062	1041.9697265625	390.8604431152344	-175.2115478515625	1205.670532226562	30.49429512023926	-261.2303466796875	1141.59228515625	36.50436019897461	-289.4813537597656	1124.904296875	29.08786773681641	-193.171875	917.5169067382812	35.52433395385742	-256.5075073242188	1086.207763671875	823.7490234375	-535.4774780273438	1073.561889648438	782.11865234375	-123.9275512695312	nan	nan	nan	nan	nan	nan	nan	nan	nan	
139	1.38	1124.900390625	58.35974502563477	-358.6207580566406	920.6917724609375	1059.933471679688	-190.3204040527344	889.3764038085938	1059.01904296875	-350.66357421875	902.1256103515625	1127.283325195312	-274.5776062011719	1140.672485351562	1308.83203125	-302.9216918945312	888.0294189453125	1271.216552734375	-270.0035400390625	947.0416870117188	1535.653686523438	-285.4139404296875	1103.777954101562	1437.049194335938	-300.5797424316406	902.248291015625	1399.791625976562	-199.4767456054688	918.18603515625	1496.783081054688	-381.7105102539062	1013.044067382812	1499.419189453125	-466.3516540527344	967.2980346679688	1377.73876953125	-540.8989868164062	950.8609008789062	1161.236450195312	-568.589111328125	905.511962890625	1149.320678710938	-473.9006652832031	1056.423217773438	915.6939697265625	-519.5657958984375	976.9105834960938	894.8114624023438	-554.3204345703125	966.6639404296875	1045.504638671875	-575.1015625	1098.744995117188	733.8598022460938	-503.5296020507812	1016.399169921875	808.1226806640625	-555.9092407226562	1046.833374023438	1517.051879882812	-121.7078399658203	1041.837890625	1445.30224609375	-47.61213302612305	1003.954345703125	1177.770141601562	-18.80024337768555	985.8271484375	1150.01025390625	-113.4649887084961	1128.042846679688	919.9232177734375	-71.04499816894531	1073.5478515625	904.329833984375	0.7541515827178955	1018.849060058594	1101.511962890625	-6.35840892791748	1149.307006835938	733.2597045898438	-86.81153106689453	1164.14111328125	810.1961669921875	-62.29290008544922	1115.656860351562	805.1339721679688	-5.638689041137695	974.6520385742188	1693.4990234375	-221.9027709960938	1146.261596679688	1750.26220703125	-331.1896667480469	1140.261840820312	1749.159301757812	-232.8421173095703	974.6490478515625	1697.672729492188	-366.0573425292969	964.9518432617188	962.0841064453125	-477.0978088378906	1048.918334960938	947.5662231445312	-110.5307159423828	1134.9384765625	978.4113159179688	-202.1515045166016	1088.023193359375	1003.797912597656	-431.6581726074219	1105.62548828125	524.2282104492188	-457.1958923339844	1044.498291015625	655.7020263671875	-486.5059814453125	953.5106811523438	42.48267364501953	-457.1814575195312	1003.101440429688	290.8893127441406	-473.5763244628906	1172.590454101562	43.58456420898438	-394.5571594238281	1077.717041015625	36.4056282043457	-476.1079711914062	886.0145263671875	53.63684844970703	-403.4391174316406	1060.748168945312	512.150146484375	-172.8770446777344	975.0999145507812	32.84579849243164	-213.0317077636719	1040.853515625	390.9770202636719	-175.0580749511719	1205.636352539062	30.50698661804199	-261.2220764160156	1141.6064453125	36.5676155090332	-289.423583984375	1124.900390625	29.06748962402344	-193.1195983886719	917.5339965820312	35.472412109375	-256.436767578125	1082.932250976562	823.9746704101562	-534.9982299804688	1071.450805664062	782.366943359375	-123.9527740478516	nan	nan	nan	nan	nan	nan	nan	nan	nan	
140	1.39	1114.104614257812	58.80146408081055	-359.26708984375	918.0458374023438	1060.04638671875	-190.1307373046875	886.493896484375	1059.146240234375	-350.426513671875	899.4479370117188	1127.395874023438	-274.3363647460938	1138.04736328125	1308.791748046875	-302.9880676269531	885.4961547851562	1271.425170898438	-269.7528076171875	944.6904296875	1535.770263671875	-285.1684875488281	1101.292236328125	1437.045043945312	-300.5628356933594	899.9022216796875	1399.919799804688	-199.2138977050781	915.7337646484375	1496.966552734375	-381.4288940429688	1010.475769042969	1499.573974609375	-466.2325134277344	964.3818969726562	1377.966064453125	-540.7174682617188	947.5677490234375	1161.407348632812	-568.3948974609375	902.2546997070312	1149.532470703125	-473.578125	1053.202514648438	915.9268798828125	-519.1633911132812	973.6996459960938	894.964111328125	-553.9157104492188	963.3394165039062	1045.607055664062	-574.779052734375	1095.6455078125	734.146484375	-502.9684753417969	1013.245544433594	808.2966918945312	-555.4300537109375	1044.631958007812	1517.034790039062	-121.6063232421875	1039.6728515625	1445.310546875	-47.49734115600586	1001.929077148438	1177.880981445312	-18.21332740783691	983.6766357421875	1149.945190429688	-112.7840347290039	1126.746215820312	920.4155883789062	-70.63917541503906	1072.594360351562	904.64208984375	1.381577253341675	1017.014770507812	1101.619750976562	-5.71016788482666	1148.70751953125	733.8069458007812	-86.28900146484375	1163.307739257812	810.8530883789062	-61.92678451538086	1115.058837890625	805.6321411132812	-5.086555480957031	972.575439453125	1693.546020507812	-221.5306549072266	1144.17431640625	1750.232666015625	-330.8316650390625	1138.242919921875	1749.044677734375	-232.493896484375	972.4962768554688	1697.894653320312	-365.677001953125	961.9325561523438	962.1898803710938	-477.0289001464844	1046.356567382812	947.5939331054688	-110.5311660766602	1132.256103515625	978.4329223632812	-202.2360534667969	1084.996459960938	1003.811645507812	-431.6517028808594	1102.835571289062	524.1319580078125	-457.3626403808594	1041.899291992188	655.8162231445312	-486.1776428222656	943.0253295898438	44.43848037719727	-456.7686157226562	996.7617797851562	291.8050231933594	-473.4608764648438	1162.303100585938	43.71199798583984	-395.0648803710938	1067.05029296875	37.46391677856445	-476.224609375	875.9740600585938	56.02479934692383	-402.7353210449219	1059.243774414062	512.24560546875	-172.8032989501953	975.1068725585938	32.78654098510742	-212.9839630126953	1039.738525390625	391.094970703125	-174.9292449951172	1205.60009765625	30.52400970458984	-261.2134094238281	1141.615966796875	36.6282844543457	-289.3658142089844	1124.895629882812	29.05056381225586	-193.06884765625	917.5722045898438	35.41454315185547	-256.359130859375	1079.756591796875	824.206787109375	-534.5069580078125	1069.283447265625	782.5875854492188	-123.942741394043	nan	nan	nan	nan	nan	nan	nan	nan	nan	
